<svg xmlns="http://www.w3.org/2000/svg" version="1.0" preserveAspectRatio="xMidYMid meet" viewBox="39.97 45.09 409.89 409.9">

<g transform="translate(0.000000,500.000000) scale(0.100000,-0.100000)" fill="#000000" stroke="none">
<path d="M2210 4535 c-460 -57 -895 -266 -1203 -579 -173 -175 -298 -348 -397 -550 -214 -438 -266 -924 -150 -1404 l31 -127 1959 3 1959 2 10 38 c56 215 71 312 78 503 9 266 -20 476 -102 727 -100 304 -272 580 -504 807 -50 49 -78 69 -94 68 -166 -15 -157 -12 -157 -44 l0 -30 85 7 85 7 0 -31 c0 -38 15 -35 -280 -57 -558 -41 -994 -115 -1173 -197 -199 -92 -136 -179 299 -414 552 -298 703 -389 846 -508 86 -72 154 -163 174 -233 49 -170 -77 -412 -305 -585 l-64 -48 -406 0 c-282 1 -401 4 -388 11 14 8 15 14 6 32 -7 12 -13 24 -15 25 -1 2 -33 -12 -71 -32 l-69 -36 -569 2 -570 3 215 59 c603 165 862 289 926 442 45 108 -10 190 -321 469 -325 294 -462 450 -514 591 -25 64 -27 143 -6 183 94 183 790 336 1845 406 129 8 272 18 318 21 l83 6 -57 44 c-141 109 -338 221 -520 292 -303 121 -662 167 -984 127z"/>
<path d="M3250 3985 c-74 -7 -135 -14 -136 -14 0 -1 1 -14 4 -30 4 -27 7 -29 36 -25 39 5 280 24 307 24 14 0 19 7 19 30 0 29 -1 30 -47 29 -27 -1 -109 -7 -183 -14z"/>
<path d="M2806 3940 c-226 -30 -213 -26 -208 -61 4 -26 8 -29 31 -25 14 3 82 13 151 21 199 24 187 21 182 55 -2 17 -7 30 -11 29 -3 0 -68 -9 -145 -19z"/>
<path d="M2299 3854 c-161 -37 -215 -57 -211 -80 6 -33 15 -34 97 -10 44 13 121 31 170 41 50 10 91 19 93 20 2 2 0 14 -4 29 -8 31 -10 31 -145 0z"/>
<path d="M1892 3686 c-40 -46 -48 -90 -28 -158 17 -56 71 -158 84 -158 5 0 17 6 28 14 18 14 18 15 1 43 -31 48 -56 107 -62 149 -6 35 -3 44 23 71 l29 32 -22 21 -22 21 -31 -35z"/>
<path d="M2076 3266 c-16 -25 -16 -25 87 -108 56 -46 119 -96 140 -112 l39 -29 21 21 c11 12 19 23 16 25 -2 2 -33 25 -69 52 -36 27 -92 71 -125 99 -97 83 -90 80 -109 52z"/>
<path d="M2492 2950 c-6 -11 -12 -22 -12 -24 0 -2 66 -50 147 -106 l147 -103 18 23 c17 22 17 23 -5 40 -32 25 -274 190 -279 190 -2 0 -9 -9 -16 -20z"/>
<path d="M2917 2646 c-15 -22 -14 -25 34 -72 72 -70 83 -95 75 -170 -6 -60 -6 -62 19 -66 22 -5 26 -1 36 36 26 95 -12 185 -109 263 l-40 32 -15 -23z"/>
<path d="M2868 2176 c-37 -28 -102 -71 -145 -95 -43 -24 -79 -45 -81 -47 -7 -5 23 -44 33 -44 20 0 210 118 255 158 45 40 45 41 25 60 -20 19 -21 19 -87 -32z"/>
<path d="M1215 1606 c-113 -42 -151 -209 -69 -304 89 -105 265 -89 325 29 26 52 25 137 -1 189 -42 82 -158 121 -255 86z m118 -64 c68 -71 61 -241 -10 -259 -88 -21 -149 175 -82 261 27 34 59 33 92 -2z"/>
<path d="M2540 1613 c-74 -27 -110 -63 -110 -112 0 -32 43 -74 119 -115 88 -49 109 -69 91 -91 -16 -20 -74 -19 -94 1 -9 8 -16 31 -16 49 0 59 -72 72 -107 19 -14 -21 -13 -27 4 -61 25 -52 92 -77 180 -69 83 7 128 27 148 66 31 59 0 101 -119 167 -74 41 -93 61 -83 87 9 22 70 21 88 -1 8 -9 14 -32 14 -52 0 -30 4 -37 24 -39 41 -6 69 7 79 37 22 62 -55 122 -156 120 -26 0 -54 -3 -62 -6z"/>
<path d="M3750 1613 c-74 -27 -110 -63 -110 -112 0 -32 43 -74 119 -115 88 -49 109 -69 91 -91 -16 -20 -74 -19 -94 1 -9 8 -16 31 -16 49 0 59 -72 72 -107 19 -14 -21 -13 -27 4 -61 32 -66 141 -90 252 -57 53 15 91 56 91 97 0 28 -60 84 -134 124 -74 41 -93 60 -83 87 9 22 70 21 88 -1 8 -9 14 -32 14 -52 0 -30 4 -37 24 -39 41 -6 69 7 79 37 22 62 -55 122 -156 120 -26 0 -54 -3 -62 -6z"/>
<path d="M670 1605 c0 -3 9 -14 20 -25 18 -18 20 -33 20 -155 0 -122 -2 -137 -20 -155 -11 -11 -20 -22 -20 -25 0 -3 41 -5 90 -5 50 0 90 3 90 6 0 3 -9 17 -20 31 -21 26 -28 97 -11 107 5 3 14 -9 21 -27 42 -106 131 -155 194 -106 39 30 32 111 -8 96 -22 -9 -96 22 -96 39 0 8 4 14 9 14 5 0 23 12 40 26 26 22 31 33 31 71 0 96 -32 113 -210 113 -71 0 -130 -2 -130 -5z m215 -59 c10 -15 15 -40 13 -68 l-3 -43 -40 0 -40 0 -3 68 -3 67 30 0 c21 0 35 -7 46 -24z"/>
<path d="M1680 1587 c0 -27 -62 -214 -91 -274 -11 -23 -29 -45 -40 -48 -39 -13 -17 -25 45 -25 63 0 92 12 60 24 -10 4 -14 16 -12 33 3 27 6 28 64 31 57 3 62 1 67 -20 4 -13 0 -29 -8 -38 -8 -9 -15 -20 -15 -23 0 -4 43 -7 95 -7 52 0 95 3 95 6 0 3 -11 15 -24 25 -24 19 -57 96 -110 257 l-28 82 -49 0 c-44 0 -49 -2 -49 -23z m53 -145 c9 -32 17 -61 17 -65 0 -4 -21 -7 -46 -7 -33 0 -45 4 -42 13 3 6 13 36 22 65 10 28 21 52 25 52 3 0 14 -26 24 -58z"/>
<path d="M2010 1590 c25 -19 25 -21 25 -160 0 -137 -1 -142 -24 -161 -33 -27 -13 -32 117 -27 127 5 166 20 204 79 65 99 37 219 -63 269 -32 17 -58 20 -161 20 l-123 0 25 -20z m203 -50 c31 -36 52 -124 43 -175 -9 -48 -46 -85 -86 -85 l-30 0 0 145 0 145 24 0 c15 0 34 -12 49 -30z"/>
<path d="M2838 1590 c24 -23 25 -29 24 -195 0 -99 -2 -111 -21 -126 -12 -10 -21 -20 -21 -23 0 -4 69 -5 152 -4 l152 3 8 44 c4 25 6 47 3 49 -2 3 -18 -9 -34 -27 -25 -27 -36 -31 -80 -31 l-51 0 0 65 c0 72 9 80 53 45 14 -11 28 -20 31 -20 3 0 6 27 6 60 0 63 -7 73 -28 40 -7 -11 -23 -20 -37 -20 -24 0 -25 3 -25 60 l0 60 50 0 c50 0 80 -17 92 -51 11 -29 18 0 12 44 l-7 47 -150 0 -151 0 22 -20z"/>
<path d="M3216 1593 c5 -10 9 -85 9 -166 0 -130 -2 -150 -17 -161 -29 -21 -21 -26 40 -26 69 0 79 6 49 30 -19 16 -22 30 -25 114 -3 60 0 96 6 96 6 0 43 -54 82 -120 l72 -121 47 3 46 3 5 163 c4 141 7 165 23 176 28 22 20 26 -48 26 -37 0 -65 -4 -65 -10 0 -5 6 -10 14 -10 8 0 19 -15 24 -32 13 -44 16 -165 4 -172 -5 -3 -40 46 -78 109 l-69 114 -64 1 c-57 0 -62 -2 -55 -17z"/>
<path d="M4048 1590 c24 -23 25 -29 24 -195 0 -99 -2 -111 -21 -126 -12 -10 -21 -20 -21 -23 0 -4 69 -5 152 -4 l152 3 8 44 c4 25 6 47 3 49 -2 3 -18 -9 -34 -27 -25 -27 -36 -31 -80 -31 l-51 0 0 65 c0 72 9 80 53 45 14 -11 28 -20 31 -20 3 0 6 27 6 60 0 63 -7 73 -28 40 -7 -11 -23 -20 -37 -20 -24 0 -25 3 -25 60 l0 60 50 0 c50 0 80 -17 92 -51 11 -29 18 0 12 44 l-7 47 -150 0 -151 0 22 -20z"/>
<path d="M1090 960 c61 -54 213 -165 290 -213 188 -116 437 -213 673 -263 165 -35 492 -45 667 -20 404 57 782 229 1090 496 l34 30 -1394 0 -1394 0 34 -30z"/>
</g>
</svg>